Coordinates
version=1
nRows=20
nColumns=33
inDegrees=yes

Units are S.I. units (second, meters, Newtons, ...)
Angles are in degrees.

endheader
time	ground_thorax_rot_x	ground_thorax_rot_y	ground_thorax_rot_z	ground_thorax_tx	ground_thorax_ty	ground_thorax_tz	clav_prot_r	clav_elev_r	scapula_abduction_r	scapula_elevation_r	scapula_upward_rot_r	scapula_winging_r	shoulder_elv_r	plane_of_elev_r	axial_rot_r	elbow_flexion_r	pro_sup_r	wrist_flex_r	wrist_dev_r	clav_prot_l	clav_elev_l	scapula_abduction_l	scapula_elevation_l	scapula_upward_rot_l	scapula_winging_l	shoulder_elv_l	plane_of_elev_l	axial_rot_l	elbow_flexion_l	pro_sup_l	wrist_flex_l	wrist_dev_l	
2.5500	37.403382	1.858653	1.880307	9.665962	806.660391	3.632743	-7.664204	34.430454	45.000000	36.518332	45.125773	-2993.731910	-2824.698849	15.865842	-180.000000	724.841655	281.985048	14.725575	10.882041	6.503414	-45.000000	-45.000000	45.000000	-18.441485	2237.900358	-3697.916787	136.507709	-180.000000	364.952006	31.818279	12.286660	-19.020452	
2.5600	37.393181	1.774904	1.967907	9.997568	806.605916	3.821169	-7.644020	34.351329	45.000000	36.373492	45.094558	-2993.670831	-2824.654787	15.863030	-180.000000	724.788650	282.063392	14.676971	10.868864	6.477476	-45.000000	-45.000000	45.000000	-18.308951	2237.918004	-3697.954641	136.511493	-180.000000	364.884222	31.746511	12.067066	-18.962051	
2.5700	37.376202	1.704435	2.090011	10.225110	806.547896	3.996763	-7.634374	34.232987	45.000000	36.211999	44.954191	-2993.539724	-2824.609609	15.866654	-180.000000	724.757354	282.134591	14.643836	10.851881	6.462968	-45.000000	-45.000000	45.000000	-18.226797	2237.966322	-3697.990796	136.544695	-180.000000	364.883698	31.627304	11.839145	-18.893356	
2.5800	37.386784	1.608562	2.141570	10.225360	806.495224	4.143768	-7.645459	34.190887	45.000000	36.156911	44.938486	-2993.520770	-2824.555235	15.860866	-180.000000	724.735262	282.184813	14.612740	10.851345	6.419337	-45.000000	-45.000000	45.000000	-18.095189	2238.010591	-3698.021560	136.560508	-180.000000	364.852464	31.438546	11.684209	-18.847203	
2.5900	37.411978	1.508571	2.174653	9.984902	806.435643	4.261001	-7.654436	34.193021	45.000000	36.161866	44.948491	-2993.545095	-2824.486191	15.852149	-180.000000	724.724493	282.202231	14.583121	10.865661	6.371341	-45.000000	-45.000000	45.000000	-17.969902	2238.079698	-3698.046298	136.570302	-180.000000	364.817193	31.167637	11.593461	-18.825809	
2.6000	37.453855	1.404396	2.191511	9.473325	806.359372	4.344774	-7.672505	34.233296	45.000000	36.224991	44.975984	-2993.609589	-2824.397913	15.846506	-180.000000	724.727380	282.174780	14.563385	10.890428	6.321738	-45.000000	-45.000000	45.000000	-17.857515	2238.176254	-3698.065414	136.576523	-180.000000	364.779825	30.810673	11.554479	-18.812649	
2.6100	37.509397	1.302930	2.210664	8.688941	806.253584	4.395015	-7.673394	34.310682	45.000000	36.325351	44.998515	-2993.692175	-2824.285094	15.842478	-180.000000	724.732998	282.094419	14.534684	10.928650	6.280504	-45.000000	-45.000000	45.000000	-17.784119	2238.304434	-3698.076290	136.578717	-180.000000	364.735759	30.380376	11.581211	-18.831882	
2.6200	37.576827	1.209297	2.238466	7.640979	806.106955	4.412779	-7.671555	34.404460	45.000000	36.450162	44.997429	-2993.777587	-2824.141072	15.842668	-180.000000	724.742680	281.958495	14.508389	10.967472	6.255697	-45.000000	-45.000000	45.000000	-17.765483	2238.455624	-3698.078460	136.584415	-180.000000	364.695584	29.897596	11.631934	-18.848601	
2.6300	37.651782	1.120647	2.268779	6.335967	805.913114	4.398505	-7.654021	34.532111	45.000000	36.596692	44.995599	-2993.882508	-2823.965576	15.852330	-180.000000	724.757728	281.773489	14.480457	11.013048	6.245587	-45.000000	-44.999999	45.000000	-17.789424	2238.633744	-3698.074034	136.580562	-180.000000	364.641479	29.392765	11.721020	-18.887080	
2.6400	37.738232	1.037306	2.294695	4.777053	805.669890	4.352108	-7.640254	34.678579	45.000000	36.770436	44.992453	-2994.003434	-2823.757421	15.865082	-180.000000	724.782573	281.554819	14.456879	11.054743	6.249613	-45.000000	-44.999998	45.000000	-17.853939	2238.825935	-3698.065754	136.571317	-180.000000	364.581019	28.896431	11.809527	-18.914306	
2.6500	37.833769	0.957656	2.317798	2.964924	805.378717	4.273382	-7.615936	34.845109	45.000000	36.963499	44.986905	-2994.134242	-2823.520309	15.877651	-180.000000	724.809594	281.323113	14.427640	11.092225	6.265644	-45.000000	-44.999997	45.000000	-17.963898	2239.027224	-3698.049976	136.563376	-180.000000	364.520234	28.438225	11.908864	-18.957550	
2.6600	37.936973	0.882115	2.338178	0.897499	805.043818	4.162020	-7.591242	35.021603	45.000000	37.178451	44.976722	-2994.281897	-2823.259036	15.888190	-180.000000	724.840897	281.099467	14.405804	11.116154	6.295674	-45.000000	-44.999995	45.000000	-18.117610	2239.241598	-3698.028297	136.552360	-180.000000	364.462231	28.040954	11.986912	-18.989597	
2.6700	38.040925	0.806300	2.361146	-1.428750	804.671527	4.017759	-7.559469	35.211312	45.000000	37.403647	44.959168	-2994.440896	-2822.981284	15.898482	-180.000000	724.874841	280.908437	14.388729	11.129400	6.335441	-45.000000	-44.999991	45.000000	-18.310662	2239.473874	-3697.999326	136.548965	-180.000000	364.416926	27.723711	12.057658	-19.038263	
2.6800	38.148780	0.735056	2.392131	-4.018602	804.269321	3.840221	-7.520765	35.408534	45.000000	37.639255	44.927326	-2994.609728	-2822.687741	15.902665	-180.000000	724.908321	280.773700	14.375505	11.128286	6.389653	-45.000000	-44.999984	45.000000	-18.552496	2239.724520	-3697.966354	136.545490	-180.000000	364.381631	27.500347	12.104884	-19.087880	
2.6900	38.256482	0.670836	2.439915	-6.876515	803.845168	3.628704	-7.469548	35.612446	45.000000	37.873350	44.872920	-2994.773605	-2822.375022	15.895525	-180.000000	724.933583	280.719063	14.357164	11.113120	6.456040	-45.000000	-44.999971	45.000000	-18.859492	2239.980170	-3697.923645	136.563103	-180.000000	364.370425	27.377046	12.138105	-19.157126	
2.7000	38.358394	0.620216	2.511868	-10.006209	803.406779	3.381678	-7.402734	35.822488	45.000000	38.100681	44.769636	-2994.932816	-2822.048576	15.884784	-180.000000	724.955522	280.764495	14.346701	11.083808	6.541557	-45.000000	-44.999947	45.000000	-19.235418	2240.255238	-3697.875918	136.585742	-180.000000	364.373821	27.353162	12.146295	-19.229859	
2.7100	38.450068	0.575839	2.607395	-13.408956	802.961480	3.096798	-7.318570	36.038910	45.000000	38.308358	44.600889	-2995.071915	-2821.716762	15.875807	-180.000000	724.973189	280.925950	14.349051	11.043080	6.636191	-45.000000	-44.999905	45.000000	-19.657989	2240.552147	-3697.832129	136.626429	-180.000000	364.391661	27.427464	12.138899	-19.316290	
2.7200	38.533120	0.542278	2.727116	-17.083809	802.516023	2.770849	-7.208251	36.256005	45.000000	38.493132	44.327562	-2995.181183	-2821.389839	15.873322	-180.000000	724.982230	281.214664	14.369000	10.988707	6.750751	-45.000000	-44.999831	45.000000	-20.134491	2240.872475	-3697.792568	136.671454	-180.000000	364.414451	27.597840	12.113368	-19.404386	
2.7300	38.603088	0.526555	2.885001	-21.027070	802.077019	2.400392	-7.057817	36.473888	45.000000	38.645709	43.900197	-2995.243309	-2821.079210	15.879979	-180.000000	724.976071	281.641581	14.413278	10.921971	6.895435	-45.000000	-44.999697	45.000000	-20.674690	2241.221566	-3697.758985	136.729203	-180.000000	364.447671	27.856740	12.077899	-19.501784	
2.7400	38.653476	0.573039	3.134986	-25.233241	801.651204	1.982450	-6.831055	36.708818	45.000000	38.760919	43.206934	-2995.253656	-2820.801725	15.915303	-180.000000	724.958474	282.223383	14.501433	10.844607	7.145340	-45.000000	-44.999457	45.000000	-21.391716	2241.616422	-3697.706365	136.769850	-180.000000	364.492033	28.196130	12.024838	-19.592630	
